<?xml version="1.0" encoding="UTF-8"?>
<!DOCTYPE svg
PUBLIC "-//W3C//DTD SVG 1.1//EN"
       "http://www.w3.org/Graphics/SVG/1.1/DTD/svg11.dtd">
<svg viewBox="28 73 997 725" width="969px" height="652px" xmlns="http://www.w3.org/2000/svg" version="1.1">
   <line x1="730" y1="168" x2="720" y2="168" style="stroke:#cb0;stroke-width:1;"/>
   <line x1="582" y1="118" x2="572" y2="118" style="stroke:#cb0;stroke-width:1;"/>
   <line x1="720" y1="168" x2="582" y2="118" style="stroke:#cb0;stroke-width:1;"/>
   <line x1="722.5" y1="168" x2="726.03553390593" y2="171.53553390593" style="stroke:#cb0;stroke-width:2;"/>
   <line x1="722.5" y1="168" x2="726.03553390593" y2="164.46446609407" style="stroke:#cb0;stroke-width:2;"/>
   <line x1="577" y1="118" x2="580.53553390593" y2="121.53553390593" style="stroke:#cb0;stroke-width:2;"/>
   <line x1="577" y1="118" x2="580.53553390593" y2="114.46446609407" style="stroke:#cb0;stroke-width:2;"/>
   <line x1="849" y1="188" x2="859" y2="188" style="stroke:#cb0;stroke-width:1;"/>
   <line x1="860" y1="443" x2="850" y2="443" style="stroke:#cb0;stroke-width:1;"/>
   <line x1="859" y1="188" x2="860" y2="443" style="stroke:#cb0;stroke-width:1;"/>
   <line x1="856.5" y1="188" x2="852.96446609407" y2="191.53553390593" style="stroke:#cb0;stroke-width:2;"/>
   <line x1="856.5" y1="188" x2="852.96446609407" y2="184.46446609407" style="stroke:#cb0;stroke-width:2;"/>
   <line x1="855" y1="443" x2="858.53553390593" y2="446.53553390593" style="stroke:#cb0;stroke-width:2;"/>
   <line x1="855" y1="443" x2="858.53553390593" y2="439.46446609407" style="stroke:#cb0;stroke-width:2;"/>
   <line x1="412" y1="488" x2="402" y2="488" style="stroke:#c00;stroke-width:1;"/>
   <line x1="430" y1="118" x2="440" y2="118" style="stroke:#c00;stroke-width:1;"/>
   <line x1="402" y1="488" x2="430" y2="118" style="stroke:#c00;stroke-width:1;"/>
   <line x1="404.5" y1="488" x2="408.03553390593" y2="491.53553390593" style="stroke:#c00;stroke-width:2;"/>
   <line x1="404.5" y1="488" x2="408.03553390593" y2="484.46446609407" style="stroke:#c00;stroke-width:2;"/>
   <line x1="435" y1="118" x2="431.46446609407" y2="121.53553390593" style="stroke:#c00;stroke-width:2;"/>
   <line x1="435" y1="118" x2="431.46446609407" y2="114.46446609407" style="stroke:#c00;stroke-width:2;"/>
   <line x1="542" y1="508" x2="552" y2="508" style="stroke:#cb0;stroke-width:1;"/>
   <line x1="553" y1="600" x2="543" y2="600" style="stroke:#cb0;stroke-width:1;"/>
   <line x1="552" y1="508" x2="553" y2="600" style="stroke:#cb0;stroke-width:1;"/>
   <line x1="549.5" y1="508" x2="545.96446609407" y2="511.53553390593" style="stroke:#cb0;stroke-width:2;"/>
   <line x1="549.5" y1="508" x2="545.96446609407" y2="504.46446609407" style="stroke:#cb0;stroke-width:2;"/>
   <line x1="548" y1="600" x2="551.53553390593" y2="603.53553390593" style="stroke:#cb0;stroke-width:2;"/>
   <line x1="548" y1="600" x2="551.53553390593" y2="596.46446609407" style="stroke:#cb0;stroke-width:2;"/>
   <line x1="719" y1="603" x2="709" y2="603" style="stroke:#b0b;stroke-width:1;"/>
   <line x1="582" y1="118" x2="572" y2="118" style="stroke:#b0b;stroke-width:1;"/>
   <line x1="709" y1="603" x2="582" y2="118" style="stroke:#b0b;stroke-width:1;"/>
   <line x1="711.5" y1="603" x2="715.03553390593" y2="606.53553390593" style="stroke:#b0b;stroke-width:2;"/>
   <line x1="711.5" y1="603" x2="715.03553390593" y2="599.46446609407" style="stroke:#b0b;stroke-width:2;"/>
   <line x1="577" y1="118" x2="580.53553390593" y2="121.53553390593" style="stroke:#b0b;stroke-width:2;"/>
   <line x1="577" y1="118" x2="580.53553390593" y2="114.46446609407" style="stroke:#b0b;stroke-width:2;"/>
   <line x1="850" y1="583" x2="860" y2="583" style="stroke:#0b0;stroke-width:1;"/>
   <line x1="881" y1="379" x2="891" y2="379" style="stroke:#0b0;stroke-width:1;"/>
   <line x1="860" y1="583" x2="881" y2="379" style="stroke:#0b0;stroke-width:1;"/>
   <line x1="857.5" y1="583" x2="853.96446609407" y2="586.53553390593" style="stroke:#0b0;stroke-width:2;"/>
   <line x1="857.5" y1="583" x2="853.96446609407" y2="579.46446609407" style="stroke:#0b0;stroke-width:2;"/>
   <line x1="886" y1="379" x2="882.46446609407" y2="382.53553390593" style="stroke:#0b0;stroke-width:2;"/>
   <line x1="886" y1="379" x2="882.46446609407" y2="375.46446609407" style="stroke:#0b0;stroke-width:2;"/>
   <line x1="214" y1="591" x2="224" y2="591" style="stroke:#bbb;stroke-width:1;"/>
   <line x1="430" y1="118" x2="440" y2="118" style="stroke:#bbb;stroke-width:1;"/>
   <line x1="224" y1="591" x2="430" y2="118" style="stroke:#bbb;stroke-width:1;"/>
   <line x1="221.5" y1="591" x2="217.96446609407" y2="594.53553390593" style="stroke:#bbb;stroke-width:2;"/>
   <line x1="221.5" y1="591" x2="217.96446609407" y2="587.46446609407" style="stroke:#bbb;stroke-width:2;"/>
   <line x1="435" y1="118" x2="431.46446609407" y2="121.53553390593" style="stroke:#bbb;stroke-width:2;"/>
   <line x1="435" y1="118" x2="431.46446609407" y2="114.46446609407" style="stroke:#bbb;stroke-width:2;"/>
   <line x1="176" y1="335" x2="186" y2="335" style="stroke:#c00;stroke-width:1;"/>
   <line x1="224" y1="511" x2="214" y2="511" style="stroke:#c00;stroke-width:1;"/>
   <line x1="186" y1="335" x2="224" y2="511" style="stroke:#c00;stroke-width:1;"/>
   <line x1="183.5" y1="335" x2="179.96446609407" y2="338.53553390593" style="stroke:#c00;stroke-width:2;"/>
   <line x1="183.5" y1="335" x2="179.96446609407" y2="331.46446609407" style="stroke:#c00;stroke-width:2;"/>
   <line x1="219" y1="511" x2="222.53553390593" y2="514.53553390593" style="stroke:#c00;stroke-width:2;"/>
   <line x1="219" y1="511" x2="222.53553390593" y2="507.46446609407" style="stroke:#c00;stroke-width:2;"/>
   <line x1="43" y1="355" x2="33" y2="355" style="stroke:#0bf;stroke-width:1;"/>
   <line x1="37" y1="130" x2="47" y2="130" style="stroke:#0bf;stroke-width:1;"/>
   <line x1="33" y1="355" x2="37" y2="130" style="stroke:#0bf;stroke-width:1;"/>
   <line x1="35.5" y1="355" x2="39.035533905933" y2="358.53553390593" style="stroke:#0bf;stroke-width:2;"/>
   <line x1="35.5" y1="355" x2="39.035533905933" y2="351.46446609407" style="stroke:#0bf;stroke-width:2;"/>
   <line x1="42" y1="130" x2="38.464466094067" y2="133.53553390593" style="stroke:#0bf;stroke-width:2;"/>
   <line x1="42" y1="130" x2="38.464466094067" y2="126.46446609407" style="stroke:#0bf;stroke-width:2;"/>
   <rect width="119" height="20" x="730" y="118" style="fill:#007;stroke:black;"/>
   <text width="119" height="20" x="735" y="132" style="fill:#fff;" font-family="Arial" font-size="16px"> alumno_clase</text>
   <rect width="119" height="20" x="730" y="138" style="fill:#aea;stroke:black;"/>
   <text width="119" height="20" x="735" y="152" style="fill:black;" font-family="Arial" font-size="16px">idAlumno_clase</text>
   <rect width="119" height="20" x="730" y="158" style="fill:none;stroke:black;"/>
   <text width="119" height="20" x="735" y="172" style="fill:black;" font-family="Arial" font-size="16px">idAlumno</text>
   <rect width="119" height="20" x="730" y="178" style="fill:none;stroke:black;"/>
   <text width="119" height="20" x="735" y="192" style="fill:black;" font-family="Arial" font-size="16px">idClase</text>
   <rect width="119" height="20" x="730" y="198" style="fill:none;stroke:black;"/>
   <text width="119" height="20" x="735" y="212" style="fill:black;" font-family="Arial" font-size="16px">calificacion</text>
   <rect width="130" height="20" x="412" y="438" style="fill:#007;stroke:black;"/>
   <text width="130" height="20" x="417" y="452" style="fill:#fff;" font-family="Arial" font-size="16px"> alumno_evento</text>
   <rect width="130" height="20" x="412" y="458" style="fill:#aea;stroke:black;"/>
   <text width="130" height="20" x="417" y="472" style="fill:black;" font-family="Arial" font-size="16px">idAlumno_evento</text>
   <rect width="130" height="20" x="412" y="478" style="fill:none;stroke:black;"/>
   <text width="130" height="20" x="417" y="492" style="fill:black;" font-family="Arial" font-size="16px">idAlumno</text>
   <rect width="130" height="20" x="412" y="498" style="fill:none;stroke:black;"/>
   <text width="130" height="20" x="417" y="512" style="fill:black;" font-family="Arial" font-size="16px">idEvento</text>
   <rect width="131" height="20" x="719" y="413" style="fill:#007;stroke:black;"/>
   <text width="131" height="20" x="724" y="427" style="fill:#fff;" font-family="Arial" font-size="16px"> clase</text>
   <rect width="131" height="20" x="719" y="433" style="fill:#aea;stroke:black;"/>
   <text width="131" height="20" x="724" y="447" style="fill:black;" font-family="Arial" font-size="16px">idClase</text>
   <rect width="131" height="20" x="719" y="453" style="fill:none;stroke:black;"/>
   <text width="131" height="20" x="724" y="467" style="fill:black;" font-family="Arial" font-size="16px">activo</text>
   <rect width="131" height="20" x="719" y="473" style="fill:none;stroke:black;"/>
   <text width="131" height="20" x="724" y="487" style="fill:black;" font-family="Arial" font-size="16px">sala</text>
   <rect width="131" height="20" x="719" y="493" style="fill:none;stroke:black;"/>
   <text width="131" height="20" x="724" y="507" style="fill:black;" font-family="Arial" font-size="16px">plazas</text>
   <rect width="131" height="20" x="719" y="513" style="fill:none;stroke:black;"/>
   <text width="131" height="20" x="724" y="527" style="fill:black;" font-family="Arial" font-size="16px">plazas_ocupadas</text>
   <rect width="131" height="20" x="719" y="533" style="fill:none;stroke:black;"/>
   <text width="131" height="20" x="724" y="547" style="fill:black;" font-family="Arial" font-size="16px">fecha_inicio</text>
   <rect width="131" height="20" x="719" y="553" style="fill:none;stroke:black;"/>
   <text width="131" height="20" x="724" y="567" style="fill:black;" font-family="Arial" font-size="16px">fecha_fin</text>
   <rect width="131" height="20" x="719" y="573" style="fill:none;stroke:black;"/>
   <text width="131" height="20" x="724" y="587" style="fill:black;" font-family="Arial" font-size="16px">idTipo</text>
   <rect width="131" height="20" x="719" y="593" style="fill:none;stroke:black;"/>
   <text width="131" height="20" x="724" y="607" style="fill:black;" font-family="Arial" font-size="16px">idMonitor</text>
   <rect width="83" height="20" x="47" y="100" style="fill:#007;stroke:black;"/>
   <text width="83" height="20" x="52" y="114" style="fill:#fff;" font-family="Arial" font-size="16px"> ejercicio</text>
   <rect width="83" height="20" x="47" y="120" style="fill:#aea;stroke:black;"/>
   <text width="83" height="20" x="52" y="134" style="fill:black;" font-family="Arial" font-size="16px">idEjercicio</text>
   <rect width="83" height="20" x="47" y="140" style="fill:none;stroke:black;"/>
   <text width="83" height="20" x="52" y="154" style="fill:black;" font-family="Arial" font-size="16px">activo</text>
   <rect width="83" height="20" x="47" y="160" style="fill:none;stroke:black;"/>
   <text width="83" height="20" x="52" y="174" style="fill:black;" font-family="Arial" font-size="16px">nombre</text>
   <rect width="83" height="20" x="47" y="180" style="fill:none;stroke:black;"/>
   <text width="83" height="20" x="52" y="194" style="fill:black;" font-family="Arial" font-size="16px">video</text>
   <rect width="91" height="20" x="452" y="570" style="fill:#007;stroke:black;"/>
   <text width="91" height="20" x="457" y="584" style="fill:#fff;" font-family="Arial" font-size="16px"> evento</text>
   <rect width="91" height="20" x="452" y="590" style="fill:#aea;stroke:black;"/>
   <text width="91" height="20" x="457" y="604" style="fill:black;" font-family="Arial" font-size="16px">idEvento</text>
   <rect width="91" height="20" x="452" y="610" style="fill:none;stroke:black;"/>
   <text width="91" height="20" x="457" y="624" style="fill:black;" font-family="Arial" font-size="16px">activo</text>
   <rect width="91" height="20" x="452" y="630" style="fill:none;stroke:black;"/>
   <text width="91" height="20" x="457" y="644" style="fill:black;" font-family="Arial" font-size="16px">titular</text>
   <rect width="91" height="20" x="452" y="650" style="fill:none;stroke:black;"/>
   <text width="91" height="20" x="457" y="664" style="fill:black;" font-family="Arial" font-size="16px">descripcion</text>
   <rect width="91" height="20" x="452" y="670" style="fill:none;stroke:black;"/>
   <text width="91" height="20" x="457" y="684" style="fill:black;" font-family="Arial" font-size="16px">fecha_inicio</text>
   <rect width="91" height="20" x="452" y="690" style="fill:none;stroke:black;"/>
   <text width="91" height="20" x="457" y="704" style="fill:black;" font-family="Arial" font-size="16px">fecha_fin</text>
   <rect width="90" height="20" x="124" y="481" style="fill:#007;stroke:black;"/>
   <text width="90" height="20" x="129" y="495" style="fill:#fff;" font-family="Arial" font-size="16px"> rutina</text>
   <rect width="90" height="20" x="124" y="501" style="fill:#aea;stroke:black;"/>
   <text width="90" height="20" x="129" y="515" style="fill:black;" font-family="Arial" font-size="16px">id</text>
   <rect width="90" height="20" x="124" y="521" style="fill:none;stroke:black;"/>
   <text width="90" height="20" x="129" y="535" style="fill:black;" font-family="Arial" font-size="16px">activo</text>
   <rect width="90" height="20" x="124" y="541" style="fill:none;stroke:black;"/>
   <text width="90" height="20" x="129" y="555" style="fill:black;" font-family="Arial" font-size="16px">fecha_inicio</text>
   <rect width="90" height="20" x="124" y="561" style="fill:none;stroke:black;"/>
   <text width="90" height="20" x="129" y="575" style="fill:black;" font-family="Arial" font-size="16px">fecha_fin</text>
   <rect width="90" height="20" x="124" y="581" style="fill:none;stroke:black;"/>
   <text width="90" height="20" x="129" y="595" style="fill:black;" font-family="Arial" font-size="16px">idAlumno</text>
   <rect width="133" height="20" x="43" y="285" style="fill:#007;stroke:black;"/>
   <text width="133" height="20" x="48" y="299" style="fill:#fff;" font-family="Arial" font-size="16px"> rutina_ejercicio</text>
   <rect width="133" height="20" x="43" y="305" style="fill:#aea;stroke:black;"/>
   <text width="133" height="20" x="48" y="319" style="fill:black;" font-family="Arial" font-size="16px">idRutina_ejercicio</text>
   <rect width="133" height="20" x="43" y="325" style="fill:none;stroke:black;"/>
   <text width="133" height="20" x="48" y="339" style="fill:black;" font-family="Arial" font-size="16px">idRutina</text>
   <rect width="133" height="20" x="43" y="345" style="fill:none;stroke:black;"/>
   <text width="133" height="20" x="48" y="359" style="fill:black;" font-family="Arial" font-size="16px">idEjercicio</text>
   <rect width="133" height="20" x="43" y="365" style="fill:none;stroke:black;"/>
   <text width="133" height="20" x="48" y="379" style="fill:black;" font-family="Arial" font-size="16px">kilos</text>
   <rect width="133" height="20" x="43" y="385" style="fill:none;stroke:black;"/>
   <text width="133" height="20" x="48" y="399" style="fill:black;" font-family="Arial" font-size="16px">repeticiones</text>
   <rect width="91" height="20" x="891" y="349" style="fill:#007;stroke:black;"/>
   <text width="91" height="20" x="896" y="363" style="fill:#fff;" font-family="Arial" font-size="16px"> tipo_clase</text>
   <rect width="91" height="20" x="891" y="369" style="fill:#aea;stroke:black;"/>
   <text width="91" height="20" x="896" y="383" style="fill:black;" font-family="Arial" font-size="16px">idTipo</text>
   <rect width="91" height="20" x="891" y="389" style="fill:none;stroke:black;"/>
   <text width="91" height="20" x="896" y="403" style="fill:black;" font-family="Arial" font-size="16px">activo</text>
   <rect width="91" height="20" x="891" y="409" style="fill:none;stroke:black;"/>
   <text width="91" height="20" x="896" y="423" style="fill:black;" font-family="Arial" font-size="16px">nombre</text>
   <rect width="91" height="20" x="891" y="429" style="fill:none;stroke:black;"/>
   <text width="91" height="20" x="896" y="443" style="fill:black;" font-family="Arial" font-size="16px">descripcion</text>
   <rect width="132" height="20" x="440" y="88" style="fill:#007;stroke:black;"/>
   <text width="132" height="20" x="445" y="102" style="fill:#fff;" font-family="Arial" font-size="16px"> usuario</text>
   <rect width="132" height="20" x="440" y="108" style="fill:#aea;stroke:black;"/>
   <text width="132" height="20" x="445" y="122" style="fill:black;" font-family="Arial" font-size="16px">idUsuario</text>
   <rect width="132" height="20" x="440" y="128" style="fill:none;stroke:black;"/>
   <text width="132" height="20" x="445" y="142" style="fill:black;" font-family="Arial" font-size="16px">activo</text>
   <rect width="132" height="20" x="440" y="148" style="fill:none;stroke:black;"/>
   <text width="132" height="20" x="445" y="162" style="fill:black;" font-family="Arial" font-size="16px">user</text>
   <rect width="132" height="20" x="440" y="168" style="fill:none;stroke:black;"/>
   <text width="132" height="20" x="445" y="182" style="fill:black;" font-family="Arial" font-size="16px">contrasena</text>
   <rect width="132" height="20" x="440" y="188" style="fill:none;stroke:black;"/>
   <text width="132" height="20" x="445" y="202" style="fill:black;" font-family="Arial" font-size="16px">rol</text>
   <rect width="132" height="20" x="440" y="208" style="fill:none;stroke:black;"/>
   <text width="132" height="20" x="445" y="222" style="fill:black;" font-family="Arial" font-size="16px">email</text>
   <rect width="132" height="20" x="440" y="228" style="fill:none;stroke:black;"/>
   <text width="132" height="20" x="445" y="242" style="fill:black;" font-family="Arial" font-size="16px">telefono</text>
   <rect width="132" height="20" x="440" y="248" style="fill:none;stroke:black;"/>
   <text width="132" height="20" x="445" y="262" style="fill:black;" font-family="Arial" font-size="16px">fecha_nacimiento</text>
</svg>
